<?xml version="1.0" encoding="UTF-8" standalone="no"?>
<!DOCTYPE svg PUBLIC "-//W3C//DTD SVG 1.1//EN"
 "http://www.w3.org/Graphics/SVG/1.1/DTD/svg11.dtd">
<!-- Generated by graphviz version 14.1.4 (20260321.0153)
 -->
<!-- Title: causal&#45;worlds Pages: 1 -->
<svg width="842pt" height="294pt"
 viewBox="0.00 0.00 842.00 294.00" xmlns="http://www.w3.org/2000/svg" xmlns:xlink="http://www.w3.org/1999/xlink">
<g id="graph0" class="graph" transform="scale(1 1) rotate(0) translate(4 289.73)">
<title>causal&#45;worlds</title>
<polygon fill="white" stroke="none" points="-4,4 -4,-289.73 838.46,-289.73 838.46,4 -4,4"/>
<!-- weekend -->
<g id="node1" class="node">
<title>weekend</title>
<polygon fill="#fef3c7" stroke="#b45309" points="108.53,-209.73 82.27,-227.73 29.73,-227.73 3.47,-209.73 29.73,-191.73 82.27,-191.73 108.53,-209.73"/>
<text xml:space="preserve" text-anchor="middle" x="56" y="-203.93" font-family="Helvetica,sans-Serif" font-size="14.00">weekend</text>
</g>
<!-- foot_traffic -->
<g id="node4" class="node">
<title>foot_traffic</title>
<polygon fill="#f1f5f9" stroke="#64748b" points="297.23,-243.73 218.23,-243.73 218.23,-207.73 297.23,-207.73 297.23,-243.73"/>
<text xml:space="preserve" text-anchor="middle" x="257.73" y="-219.93" font-family="Helvetica,sans-Serif" font-size="14.00">foot_traffic</text>
</g>
<!-- weekend&#45;&gt;foot_traffic -->
<g id="edge2" class="edge">
<title>weekend&#45;&gt;foot_traffic</title>
<path fill="none" stroke="#475569" d="M108.7,-209.26C120.63,-209.45 133.27,-209.88 145,-210.73 165.22,-212.2 187.37,-214.93 206.58,-217.67"/>
<polygon fill="#475569" stroke="#475569" points="205.91,-221.11 216.31,-219.1 206.93,-214.18 205.91,-221.11"/>
<text xml:space="preserve" text-anchor="middle" x="137.5" y="-212.28" font-family="Helvetica,sans-Serif" font-size="11.00">1.5</text>
</g>
<!-- loyalty_discount -->
<g id="node2" class="node">
<title>loyalty_discount</title>
<path fill="#dbeafe" stroke="#1d4ed8" d="M100,-285.73C100,-285.73 12,-285.73 12,-285.73 6,-285.73 0,-279.73 0,-273.73 0,-273.73 0,-261.73 0,-261.73 0,-255.73 6,-249.73 12,-249.73 12,-249.73 100,-249.73 100,-249.73 106,-249.73 112,-255.73 112,-261.73 112,-261.73 112,-273.73 112,-273.73 112,-279.73 106,-285.73 100,-285.73"/>
<text xml:space="preserve" text-anchor="middle" x="56" y="-261.93" font-family="Helvetica,sans-Serif" font-size="14.00">loyalty_discount</text>
</g>
<!-- loyalty_discount&#45;&gt;foot_traffic -->
<g id="edge3" class="edge">
<title>loyalty_discount&#45;&gt;foot_traffic</title>
<path fill="none" stroke="#475569" d="M112.19,-250.23C118.17,-248.6 124.19,-247.06 130,-245.73 155.1,-239.99 183.37,-235.36 206.83,-232"/>
<polygon fill="#475569" stroke="#475569" points="207,-235.51 216.42,-230.67 206.04,-228.58 207,-235.51"/>
<text xml:space="preserve" text-anchor="middle" x="137.5" y="-247.28" font-family="Helvetica,sans-Serif" font-size="11.00">0.8</text>
</g>
<!-- daily_margin -->
<g id="node7" class="node">
<title>daily_margin</title>
<polygon fill="#dcfce7" stroke="#15803d" points="830.46,-256.73 737.21,-256.73 737.21,-220.73 830.46,-220.73 830.46,-256.73"/>
<polygon fill="none" stroke="#15803d" points="834.46,-260.73 733.21,-260.73 733.21,-216.73 834.46,-216.73 834.46,-260.73"/>
<text xml:space="preserve" text-anchor="middle" x="783.83" y="-232.93" font-family="Helvetica,sans-Serif" font-size="14.00">daily_margin</text>
</g>
<!-- loyalty_discount&#45;&gt;daily_margin -->
<g id="edge10" class="edge">
<title>loyalty_discount&#45;&gt;daily_margin</title>
<path fill="none" stroke="#475569" d="M112.1,-269.43C152.2,-270.52 207.83,-271.73 256.73,-271.73 256.73,-271.73 256.73,-271.73 641.08,-271.73 668.03,-271.73 697.14,-266 721.92,-259.32"/>
<polygon fill="#475569" stroke="#475569" points="722.84,-262.69 731.52,-256.61 720.94,-255.95 722.84,-262.69"/>
<text xml:space="preserve" text-anchor="middle" x="478.21" y="-273.28" font-family="Helvetica,sans-Serif" font-size="11.00">&#45;0.9/1.2</text>
</g>
<!-- supplier_lead_time -->
<g id="node3" class="node">
<title>supplier_lead_time</title>
<polygon fill="#f1f5f9" stroke="#64748b" points="543.21,-119.73 413.21,-119.73 413.21,-83.73 543.21,-83.73 543.21,-119.73"/>
<text xml:space="preserve" text-anchor="middle" x="478.21" y="-95.93" font-family="Helvetica,sans-Serif" font-size="14.00">supplier_lead_time</text>
</g>
<!-- drinks_sold -->
<g id="node6" class="node">
<title>drinks_sold</title>
<polygon fill="#f1f5f9" stroke="#64748b" points="682.21,-196.73 597.96,-196.73 597.96,-160.73 682.21,-160.73 682.21,-196.73"/>
<text xml:space="preserve" text-anchor="middle" x="640.08" y="-172.93" font-family="Helvetica,sans-Serif" font-size="14.00">drinks_sold</text>
</g>
<!-- supplier_lead_time&#45;&gt;drinks_sold -->
<g id="edge7" class="edge">
<title>supplier_lead_time&#45;&gt;drinks_sold</title>
<path fill="none" stroke="#475569" d="M543.54,-116.87C555.96,-120.9 568.63,-125.82 579.96,-131.73 590.97,-137.47 601.93,-145.4 611.37,-153.11"/>
<polygon fill="#475569" stroke="#475569" points="608.86,-155.57 618.75,-159.38 613.39,-150.23 608.86,-155.57"/>
<text xml:space="preserve" text-anchor="middle" x="570.58" y="-133.28" font-family="Helvetica,sans-Serif" font-size="11.00">&#45;0.7</text>
</g>
<!-- queue_length -->
<g id="node5" class="node">
<title>queue_length</title>
<polygon fill="#f1f5f9" stroke="#64748b" points="527.08,-223.73 429.33,-223.73 429.33,-187.73 527.08,-187.73 527.08,-223.73"/>
<text xml:space="preserve" text-anchor="middle" x="478.21" y="-199.93" font-family="Helvetica,sans-Serif" font-size="14.00">queue_length</text>
</g>
<!-- foot_traffic&#45;&gt;queue_length -->
<g id="edge4" class="edge">
<title>foot_traffic&#45;&gt;queue_length</title>
<path fill="none" stroke="#475569" d="M297.54,-222.18C331.02,-219.11 379.89,-214.64 418.21,-211.13"/>
<polygon fill="#475569" stroke="#475569" points="418.08,-214.66 427.72,-210.26 417.44,-207.69 418.08,-214.66"/>
<text xml:space="preserve" text-anchor="middle" x="382.83" y="-216.68" font-family="Helvetica,sans-Serif" font-size="11.00">1.2</text>
</g>
<!-- foot_traffic&#45;&gt;drinks_sold -->
<g id="edge6" class="edge">
<title>foot_traffic&#45;&gt;drinks_sold</title>
<path fill="none" stroke="#475569" d="M297.48,-220.84C315.52,-217.07 336.47,-210.43 352.46,-198.73 364.1,-190.21 358.16,-179.26 370.46,-171.73 436.28,-131.41 529.24,-146.13 586.76,-161.59"/>
<polygon fill="#475569" stroke="#475569" points="585.74,-164.94 596.31,-164.27 587.63,-158.2 585.74,-164.94"/>
<text xml:space="preserve" text-anchor="middle" x="478.21" y="-154.88" font-family="Helvetica,sans-Serif" font-size="11.00">1.3</text>
</g>
<!-- queue_length&#45;&gt;drinks_sold -->
<g id="edge8" class="edge">
<title>queue_length&#45;&gt;drinks_sold</title>
<path fill="none" stroke="#475569" d="M527.18,-197.63C545.85,-194.47 567.31,-190.85 586.41,-187.62"/>
<polygon fill="#475569" stroke="#475569" points="586.88,-191.1 596.15,-185.98 585.71,-184.19 586.88,-191.1"/>
<text xml:space="preserve" text-anchor="middle" x="570.58" y="-192.97" font-family="Helvetica,sans-Serif" font-size="11.00">&#45;0.5</text>
</g>
<!-- drinks_sold&#45;&gt;daily_margin -->
<g id="edge9" class="edge">
<title>drinks_sold&#45;&gt;daily_margin</title>
<path fill="none" stroke="#475569" d="M682.46,-196.24C695.03,-201.56 709.11,-207.52 722.65,-213.25"/>
<polygon fill="#475569" stroke="#475569" points="720.9,-216.31 731.47,-216.99 723.63,-209.87 720.9,-216.31"/>
<text xml:space="preserve" text-anchor="middle" x="707.71" y="-210.28" font-family="Helvetica,sans-Serif" font-size="11.00">1.4</text>
</g>
<!-- barista_morale_noise -->
<g id="node8" class="node">
<title>barista_morale_noise</title>
<ellipse fill="#fee2e2" stroke="#b91c1c" stroke-dasharray="5,2" cx="257.73" cy="-94.73" rx="94.73" ry="94.73"/>
<text xml:space="preserve" text-anchor="middle" x="257.73" y="-88.93" font-family="Helvetica,sans-Serif" font-size="14.00">barista_morale_noise</text>
</g>
<!-- barista_morale_noise&#45;&gt;supplier_lead_time -->
<g id="edge1" class="edge">
<title>barista_morale_noise&#45;&gt;supplier_lead_time</title>
<path fill="none" stroke="#b91c1c" stroke-dasharray="5,2" d="M352.65,-97.74C369.03,-98.26 385.88,-98.8 401.68,-99.31"/>
<polygon fill="#b91c1c" stroke="#b91c1c" points="401.37,-102.8 411.47,-99.62 401.59,-95.8 401.37,-102.8"/>
<text xml:space="preserve" text-anchor="middle" x="382.83" y="-100.61" font-family="Helvetica,sans-Serif" font-size="11.00" fill="#b91c1c">&#45;0.33</text>
</g>
<!-- barista_morale_noise&#45;&gt;queue_length -->
<g id="edge5" class="edge">
<title>barista_morale_noise&#45;&gt;queue_length</title>
<path fill="none" stroke="#b91c1c" stroke-dasharray="5,2" d="M342.44,-137.71C365.36,-149.44 390.22,-162.11 413.21,-173.73 418.68,-176.5 424.42,-179.39 430.13,-182.25"/>
<polygon fill="#b91c1c" stroke="#b91c1c" points="428.43,-185.31 438.94,-186.66 431.56,-179.05 428.43,-185.31"/>
<text xml:space="preserve" text-anchor="middle" x="382.83" y="-164.61" font-family="Helvetica,sans-Serif" font-size="11.00" fill="#b91c1c">&#45;0.27</text>
</g>
</g>
</svg>
